<?xml version="1.0" encoding="utf-8"?>
<!-- Generator: Adobe Illustrator 16.0.0, SVG Export Plug-In . SVG Version: 6.00 Build 0)  -->
<!DOCTYPE svg PUBLIC "-//W3C//DTD SVG 1.1//EN" "http://www.w3.org/Graphics/SVG/1.1/DTD/svg11.dtd">
<svg version="1.1" id="Layer_1" xmlns="http://www.w3.org/2000/svg" xmlns:xlink="http://www.w3.org/1999/xlink" x="0px" y="0px"
	 width="208.045px" height="279.333px" viewBox="186.977 288.667 208.045 279.333"
	 enable-background="new 186.977 288.667 208.045 279.333" xml:space="preserve">
<g>
	<g>
		<path fill="#54AF53" d="M291,288.667c-57.453,0-104.023,75.411-104.023,168.429C186.977,518.35,233.547,568,291,568
			s104.022-49.65,104.022-110.904C395.022,364.078,348.453,288.667,291,288.667z"/>
	</g>
	<path fill="#99CF8F" d="M386.667,460.667c0,49.311-49.407,98.033-95.667,98.033s-97.333-47.724-97.333-97.033
		c0-74.894,51.073-163,97.333-163S386.667,385.773,386.667,460.667z"/>
</g>
<path fill="#F598AE" d="M379,461c0,36.45-49.418,87.5-88,87.5c-38.583,0-90-48.716-90-85.166C201,407.975,237.325,308,290.167,308
	C340.167,308,379,405.641,379,461z"/>
<path fill="#E06E8E" d="M255.207,452.889C255.207,479.831,293.9,522,272.6,522c-21.304,0-49.691-36.009-49.691-62.951
	c0-40.92,28.389-111.859,49.691-111.859C293.9,347.189,255.207,411.969,255.207,452.889z"/>
<path fill="#E06E8E" d="M324.46,452.889c0,26.942-38.694,69.111-17.394,69.111c21.305,0,49.692-36.009,49.692-62.951
	c0-40.92-28.389-111.859-49.692-111.859C285.766,347.189,324.46,411.969,324.46,452.889z"/>
</svg>
